<?xml version="1.0" encoding="UTF-8" standalone="no"?><!DOCTYPE svg PUBLIC "-//W3C//DTD SVG 1.1//EN" "http://www.w3.org/Graphics/SVG/1.1/DTD/svg11.dtd"><svg width="100%" height="100%" viewBox="0 0 853 300" version="1.1" xmlns="http://www.w3.org/2000/svg" xmlns:xlink="http://www.w3.org/1999/xlink" xml:space="preserve" xmlns:serif="http://www.serif.com/" style="fill-rule:evenodd;clip-rule:evenodd;stroke-linecap:round;stroke-linejoin:round;stroke-miterlimit:1.5;"><rect id="bk-gh-readme-header" x="0" y="0" width="852.48" height="300" style="fill:none;"/><g id="bk-logo"><g transform="matrix(0.543812,0,0,0.543812,423.775,93.7757)"><path d="M0.59,160l0,-102.375l34.594,0c12.046,0 21.445,2.344 28.195,7.031c6.75,4.688 10.125,11.696 10.125,21.024c0,4.734 -1.254,8.965 -3.762,12.691c-2.508,3.727 -6.152,6.527 -10.933,8.402c6.14,1.313 10.746,4.125 13.816,8.438c3.07,4.312 4.605,9.305 4.605,14.976c0,9.797 -3.234,17.215 -9.703,22.254c-6.468,5.039 -15.632,7.559 -27.492,7.559l-39.445,0Zm20.531,-45.281l0,29.461l18.914,0c5.438,0 9.586,-1.181 12.445,-3.543c2.86,-2.362 4.29,-5.857 4.29,-10.487c0,-5.003 -1.219,-8.826 -3.657,-11.468c-2.437,-2.642 -6.281,-3.963 -11.531,-3.963l-20.461,0Zm0,-14.203l14.766,0c5.484,0 9.703,-1.125 12.656,-3.375c2.953,-2.25 4.43,-5.532 4.43,-9.844c0,-4.735 -1.489,-8.227 -4.465,-10.477c-2.977,-2.25 -7.418,-3.375 -13.324,-3.375l-14.063,0l0,27.071Z" style="fill:#3c425b;fill-rule:nonzero;"/><rect x="92.848" y="50.313" width="20.531" height="109.688" style="fill:#3c425b;fill-rule:nonzero;"/><path d="M177.23,149.031c-2.343,3.985 -5.32,7.055 -8.929,9.211c-3.61,2.156 -7.758,3.235 -12.446,3.235c-8.015,0 -14.285,-2.567 -18.808,-7.7c-4.524,-5.132 -6.785,-13.113 -6.785,-23.941l0,-45.914l20.461,0l0,46.16c0,5.544 0.937,9.525 2.812,11.945c1.875,2.419 4.641,3.629 8.297,3.629c3.281,0 6.094,-0.528 8.438,-1.586c2.343,-1.057 4.265,-2.619 5.765,-4.686l0,-55.462l20.531,0l0,76.078l-17.507,0l-1.829,-10.969Z" style="fill:#3c425b;fill-rule:nonzero;"/><path d="M252.543,101.57l-7.523,-0.211c-3.047,0 -5.555,0.633 -7.524,1.899c-1.969,1.265 -3.469,3.047 -4.5,5.344l0,51.398l-20.461,0l0,-76.078l19.055,0l0.914,11.25c1.781,-3.985 4.09,-7.09 6.926,-9.317c2.836,-2.226 6.105,-3.339 9.808,-3.339c1.032,0 1.981,0.082 2.848,0.246c0.867,0.164 1.746,0.363 2.637,0.597l-2.18,18.211Z" style="fill:#3c425b;fill-rule:nonzero;"/><path d="M293.473,112.398l-12.516,13.008l0,34.594l-13.5,0l0,-102.375l13.5,0l0,50.625l45.492,-50.625l16.313,0l-40.289,45.211l43.453,57.164l-16.172,0l-36.281,-47.602Z" style="fill:#3c425b;fill-rule:nonzero;"/><path d="M370.332,160l-13.008,0l0,-76.078l13.008,0l0,76.078Zm-14.062,-96.258c0,-2.109 0.644,-3.89 1.933,-5.344c1.289,-1.453 3.199,-2.179 5.731,-2.179c2.531,0 4.453,0.726 5.765,2.179c1.313,1.454 1.969,3.235 1.969,5.344c0,2.11 -0.656,3.867 -1.969,5.274c-1.312,1.406 -3.234,2.109 -5.765,2.109c-2.532,0 -4.442,-0.703 -5.731,-2.109c-1.289,-1.407 -1.933,-3.164 -1.933,-5.274Z" style="fill:#3c425b;fill-rule:nonzero;"/><path d="M409.293,65.5l0,18.422l14.203,0l0,10.055l-14.203,0l0,47.239c0,3.05 0.633,5.338 1.898,6.863c1.266,1.526 3.422,2.288 6.469,2.288c1.5,0 3.563,-0.281 6.188,-0.844l0,10.486c-3.422,0.931 -6.75,1.397 -9.985,1.397c-5.812,0 -10.195,-1.758 -13.148,-5.273c-2.953,-3.516 -4.43,-8.508 -4.43,-14.977l0,-47.179l-13.851,0l0,-10.055l13.851,0l0,-18.422l13.008,0Z" style="fill:#3c425b;fill-rule:nonzero;"/></g><g id="logo-mark"><g id="brackets"><path id="left-bracket" d="M208.232,109.933c0,-11.057 8.977,-20.034 20.034,-20.034l10.017,0l0,10.017l-10.017,0c-5.529,0 -10.017,4.488 -10.017,10.017l0,80.134c0,5.529 4.488,10.017 10.017,10.017l10.017,0l0,10.017l-10.017,0c-11.057,0 -20.034,-8.977 -20.034,-20.034l0,-27.546c0,-5.528 -4.488,-10.017 -10.017,-10.017l-0.003,0l0,-5.008l0.003,0c5.529,0 10.017,-4.489 10.017,-10.017l0,-27.546Zm10.017,30.115c-0.035,5.497 -4.507,9.949 -10.011,9.952l0,0c5.526,0.003 10.011,4.49 10.011,10.017l0,-20.034l0,0.065Z" style="fill:#ef8a7c;"/><path id="right-bracket" d="M362.689,109.933c0,-11.057 -8.977,-20.034 -20.034,-20.034l-10.017,0l0,10.017l10.017,0c5.528,0 10.017,4.488 10.017,10.017l0,80.134c0,5.529 -4.489,10.017 -10.017,10.017l-10.017,0l0,10.017l10.017,0c11.057,0 20.034,-8.977 20.034,-20.034l0,-27.546c0,-5.528 4.488,-10.017 10.016,-10.017l0.004,0l0,-5.008l-0.004,0c-5.528,0 -10.016,-4.489 -10.016,-10.017l0,-27.546Zm-10.017,30.115c0.035,5.497 4.506,9.949 10.011,9.952l0,0c-5.526,0.003 -10.011,4.49 -10.011,10.017l0,-20.034l0,0.065Z" style="fill:#5960e9;"/></g><g id="Lines"><clipPath id="_clip1"><circle cx="283.494" cy="150" r="40.632"/></clipPath><g clip-path="url(#_clip1)"><path d="M235.766,190.632l50.323,-49.311l32.61,-31.953" style="fill:url(#_Linear2);"/><path d="M318.886,106.374l0.312,0.036l0.307,0.069l0.297,0.1l0.286,0.13l0.27,0.16l0.252,0.187l0.232,0.213l0.207,0.235l0.182,0.256l0.155,0.274l0.124,0.288l0.094,0.299l0.062,0.308l0.03,0.313l-0.003,0.314l-0.036,0.312l-0.068,0.306l-0.101,0.298l-0.13,0.285l-0.16,0.271l-0.187,0.252l-0.213,0.231l-32.609,31.953l-50.324,49.31l-0.235,0.208l-0.256,0.182l-0.274,0.154l-0.288,0.125l-0.299,0.094l-0.308,0.062l-0.313,0.03l-0.314,-0.003l-0.312,-0.036l-0.306,-0.069l-0.298,-0.1l-0.285,-0.13l-0.271,-0.16l-0.252,-0.187l-0.231,-0.213l-0.208,-0.235l-0.182,-0.256l-0.154,-0.274l-0.125,-0.288l-0.094,-0.299l-0.062,-0.308l-0.03,-0.313l0.004,-0.314l0.036,-0.312l0.068,-0.306l0.1,-0.298l0.131,-0.285l0.159,-0.271l0.188,-0.252l0.212,-0.231l50.324,-49.31l32.609,-31.953l0.236,-0.208l0.256,-0.182l0.273,-0.154l0.288,-0.125l0.3,-0.094l0.308,-0.062l0.312,-0.03l0.314,0.003Z" style="fill:url(#_Linear3);"/><path d="M242.167,165.028l50.372,-50.372" style="fill:url(#_Linear4);stroke:url(#_Linear5);stroke-width:6px;"/><path d="M251.35,139.842l25.882,-25.882" style="fill:url(#_Linear6);stroke:url(#_Linear7);stroke-width:6px;"/><path d="M298.244,186.179l25.882,-25.882" style="fill:url(#_Linear8);stroke:url(#_Linear9);stroke-width:6px;"/><path d="M256.638,190.632l30.335,-30.335" style="fill:url(#_Linear10);stroke:url(#_Linear11);stroke-width:6px;"/><path d="M277.232,188.475l46.894,-46.894" style="fill:url(#_Linear12);stroke:url(#_Linear13);stroke-width:6px;"/><path d="M296.017,150l28.109,-28.108" style="fill:url(#_Linear14);stroke:url(#_Linear15);stroke-width:6px;"/></g></g></g></g><defs><linearGradient id="_Linear2" x1="0" y1="0" x2="1" y2="0" gradientUnits="userSpaceOnUse" gradientTransform="matrix(88.3599,0,0,81.2633,52.3666,370.691)"><stop offset="0" style="stop-color:#ef8a7c;stop-opacity:1"/><stop offset="1" style="stop-color:#5860e8;stop-opacity:1"/></linearGradient><linearGradient id="_Linear3" x1="0" y1="0" x2="1" y2="0" gradientUnits="userSpaceOnUse" gradientTransform="matrix(88.3599,-81.2633,81.2633,88.3599,235.766,190.632)"><stop offset="0" style="stop-color:#ef8a7c;stop-opacity:1"/><stop offset="1" style="stop-color:#5860e8;stop-opacity:1"/></linearGradient><linearGradient id="_Linear4" x1="0" y1="0" x2="1" y2="0" gradientUnits="userSpaceOnUse" gradientTransform="matrix(88.3599,0,0,81.2633,52.3666,370.691)"><stop offset="0" style="stop-color:#ef8a7c;stop-opacity:1"/><stop offset="1" style="stop-color:#5860e8;stop-opacity:1"/></linearGradient><linearGradient id="_Linear5" x1="0" y1="0" x2="1" y2="0" gradientUnits="userSpaceOnUse" gradientTransform="matrix(88.3599,-81.2633,81.2633,88.3599,235.766,190.632)"><stop offset="0" style="stop-color:#ef8a7c;stop-opacity:1"/><stop offset="1" style="stop-color:#5860e8;stop-opacity:1"/></linearGradient><linearGradient id="_Linear6" x1="0" y1="0" x2="1" y2="0" gradientUnits="userSpaceOnUse" gradientTransform="matrix(45.4004,0,0,41.7541,153.829,245.514)"><stop offset="0" style="stop-color:#ef8a7c;stop-opacity:1"/><stop offset="1" style="stop-color:#5860e8;stop-opacity:1"/></linearGradient><linearGradient id="_Linear7" x1="0" y1="0" x2="1" y2="0" gradientUnits="userSpaceOnUse" gradientTransform="matrix(88.3599,-81.2633,81.2633,88.3599,235.766,190.632)"><stop offset="0" style="stop-color:#ef8a7c;stop-opacity:1"/><stop offset="1" style="stop-color:#5860e8;stop-opacity:1"/></linearGradient><linearGradient id="_Linear8" x1="0" y1="0" x2="1" y2="0" gradientUnits="userSpaceOnUse" gradientTransform="matrix(45.4004,0,0,41.7541,200.722,291.851)"><stop offset="0" style="stop-color:#ef8a7c;stop-opacity:1"/><stop offset="1" style="stop-color:#5860e8;stop-opacity:1"/></linearGradient><linearGradient id="_Linear9" x1="0" y1="0" x2="1" y2="0" gradientUnits="userSpaceOnUse" gradientTransform="matrix(88.3599,-81.2633,81.2633,88.3599,235.766,190.632)"><stop offset="0" style="stop-color:#ef8a7c;stop-opacity:1"/><stop offset="1" style="stop-color:#5860e8;stop-opacity:1"/></linearGradient><linearGradient id="_Linear10" x1="0" y1="0" x2="1" y2="0" gradientUnits="userSpaceOnUse" gradientTransform="matrix(88.3599,0,0,81.2633,57.0977,372.918)"><stop offset="0" style="stop-color:#ef8a7c;stop-opacity:1"/><stop offset="1" style="stop-color:#5860e8;stop-opacity:1"/></linearGradient><linearGradient id="_Linear11" x1="0" y1="0" x2="1" y2="0" gradientUnits="userSpaceOnUse" gradientTransform="matrix(88.3599,-81.2633,81.2633,88.3599,235.766,190.632)"><stop offset="0" style="stop-color:#ef8a7c;stop-opacity:1"/><stop offset="1" style="stop-color:#5860e8;stop-opacity:1"/></linearGradient><linearGradient id="_Linear12" x1="0" y1="0" x2="1" y2="0" gradientUnits="userSpaceOnUse" gradientTransform="matrix(136.593,0,0,125.623,-31.2316,470.265)"><stop offset="0" style="stop-color:#ef8a7c;stop-opacity:1"/><stop offset="1" style="stop-color:#5860e8;stop-opacity:1"/></linearGradient><linearGradient id="_Linear13" x1="0" y1="0" x2="1" y2="0" gradientUnits="userSpaceOnUse" gradientTransform="matrix(88.3599,-81.2633,81.2633,88.3599,235.766,190.632)"><stop offset="0" style="stop-color:#ef8a7c;stop-opacity:1"/><stop offset="1" style="stop-color:#5860e8;stop-opacity:1"/></linearGradient><linearGradient id="_Linear14" x1="0" y1="0" x2="1" y2="0" gradientUnits="userSpaceOnUse" gradientTransform="matrix(81.8748,0,0,75.299,111.122,318.907)"><stop offset="0" style="stop-color:#ef8a7c;stop-opacity:1"/><stop offset="1" style="stop-color:#5860e8;stop-opacity:1"/></linearGradient><linearGradient id="_Linear15" x1="0" y1="0" x2="1" y2="0" gradientUnits="userSpaceOnUse" gradientTransform="matrix(88.3599,-81.2633,81.2633,88.3599,235.766,190.632)"><stop offset="0" style="stop-color:#ef8a7c;stop-opacity:1"/><stop offset="1" style="stop-color:#5860e8;stop-opacity:1"/></linearGradient></defs></svg>